FILE "Yumimi Mix (1993)(Game Arts)(JP).img" BINARY
  TRACK 01 MODE1/2352
    INDEX 01 00:00:00
  TRACK 02 AUDIO
    PREGAP 00:02:00
    INDEX 01 18:38:36
  TRACK 03 AUDIO
    INDEX 00 20:39:27
    INDEX 01 20:41:26
  TRACK 04 AUDIO
    INDEX 00 24:02:54
    INDEX 01 24:04:53
